<svg id="Layer_1" data-name="Layer 1" xmlns="http://www.w3.org/2000/svg" viewBox="0 0 1504 473"><defs><style>.cls-1{fill:#184f9e;}.cls-2{fill:#b258b7;}.cls-3{fill:#2bc1c1;}.cls-4{fill:#f5a4f7;}.cls-5{fill:#eacada;}</style></defs><title>Name</title><rect class="cls-1" width="376" height="376"/><rect class="cls-2" x="376" y="97" width="376" height="376"/><rect class="cls-3" x="752" width="376" height="376"/><rect class="cls-4" x="1128" y="97" width="376" height="376"/><rect class="cls-3" y="376" width="376" height="97"/><rect class="cls-5" x="376" width="376" height="97"/><rect class="cls-1" x="752" y="376" width="376" height="97"/><rect class="cls-2" x="1128" width="376" height="97"/><rect class="cls-2" x="63.75" y="59.74" width="124.22" height="257.31"/><polygon class="cls-2" points="188.4 188.04 63.4 317.04 313.39 317.04 188.4 188.04"/><polygon class="cls-2" points="188.4 188.74 313.39 59.73 63.4 59.73 188.4 188.74"/><polygon class="cls-4" points="563.76 156.69 438.76 414 688.76 414 563.76 156.69"/><polygon class="cls-5" points="940.9 189.93 940.9 317.65 815 317.65 1065 317.65 940.9 189.93"/><polygon class="cls-5" points="1065 188.11 1065 60.35 815 60.35 815 317.65 940 189 939.1 188.07 940.9 188.07 940.9 188.07 940.9 188.07 1065 188.07 1065 188.11 1065 188.11"/><rect class="cls-1" x="1269.24" y="166.85" width="92.99" height="257.31"/><rect class="cls-1" x="1319.65" y="175.7" width="95.71" height="250" transform="translate(1015.8 1582.2) rotate(-90)"/></svg>